<svg width="196" height="76" stroke-width="8" fill="none" xmlns="http://www.w3.org/2000/svg">
  <title>Cas-9</title>
  <g stroke="#000" mask="url(#1)">
    <rect x="8" y="8" width="24" height="48" rx="12" />
    <rect x="88" y="8" width="24" height="48" rx="12" />
  </g>
  <mask id="1">
    <rect x="0" y="0" width="196" height="76" fill="#fff" />
    <rect x="16" y="20" width="104" height="24" fill="#000" />
  </mask>
  <g stroke="#000" fill="none" mask="url(#2)">
    <line x1="42" y1="64" x2="60" y2="0" />
    <line x1="78" y1="64" x2="60" y2="0" />
    <line x1="50" y1="44" x2="70" y2="44" />
  </g>
  <mask id="2">
    <rect x="36" y="4" width="48" height="56" fill="#fff" />
  </mask>
  <path d="M88 20 C88 36 112 28 112 44" stroke="#000"  />
  <g stroke="#f60">
    <circle cx="176" cy="56" r="12" />
    <line x1="128" y1="44" x2="176" y2="44" />
    <circle cx="128" cy="48" r="8" fill="#f60" stroke="none" mask="url(#3)" />
  </g>
  <g stroke="#000" transform-origin="155 44" transform="rotate(-55)">
    <circle cx="176" cy="32" r="12" />
    <line x1="128" y1="44" x2="176" y2="44" />
    <circle cx="128" cy="40" r="8" fill="#000" stroke="none" mask="url(#3)" />
  </g>
  <mask id="3">
    <line x1="120" y1="44" x2="128" y2="44" stroke="#fff" />
  </mask>
  <circle cx="155" cy="44" r="2" stroke="none" fill="#fff" />
</svg>