<svg width="196" height="76" stroke-width="8" fill="none" xmlns="http://www.w3.org/2000/svg">
  <title>Cas-9</title>
  <rect x="0" y="0" width="196" height="76" fill="#fff" stroke="none" />
  <g stroke="#000" fill="none">
    <rect x="8" y="8" width="24" height="48" rx="12" />
    <rect x="88" y="8" width="24" height="48" rx="12" />
  </g>
  <rect x="16" y="20" width="104" height="24" stroke="none" fill="#fff" />
  <g stroke="#000" fill="none">
    <line x1="42" y1="64" x2="60" y2="0" />
    <line x1="78" y1="64" x2="60" y2="0" />
    <line x1="50" y1="44" x2="70" y2="44" />
  </g>
  <g stroke="#fff">
    <line x1="54" x2="66" y1="0" y2="0" />
    <line x1="36" x2="84" y1="64" y2="64" />
  </g>
  <path d="M88 20 C88 36 112 28 112 44" stroke="#000"  />
  <g stroke="#f60">
    <circle cx="176" cy="56" r="12" />
    <line x1="128" y1="44" x2="176" y2="44" />
    <circle cx="128" cy="48" r="8" fill="#f60" stroke="none" />
    <line x1="120" y1="52" x2="136" y2="52" stroke="#fff" />
  </g>
  <g stroke="#000" transform-origin="155 44" transform="rotate(-55)">
    <circle cx="176" cy="32" r="12" />
    <line x1="128" y1="44" x2="176" y2="44" />
    <circle cx="128" cy="40" r="8" fill="#000" stroke="none" />
    <line x1="120" y1="36" x2="136" y2="36" stroke="#fff" />
  </g>
  <circle cx="155" cy="44" r="2" stroke="none" fill="#fff" />
</svg>