<svg
  width="206"
  height="82"
  stroke-width="8"
  fill="none"
  xmlns="http://www.w3.org/2000/svg"
>
  <rect x="0" y="0" width="206" height="82" fill="#fff" stroke="none" rx="4" />
  <g stroke="#000" fill="none">
    <rect x="12" y="12" width="24" height="48" rx="12" />
    <rect x="92" y="12" width="24" height="48" rx="12" />
  </g>
  <rect
    x="20"
    y="24"
    width="104"
    height="24"
    stroke="none"
    fill="#fff"
  />
  <g stroke="#000" fill="none">
    <line x1="46" y1="68" x2="64" y2="4" />
    <line x1="82" y1="68" x2="64" y2="4" />
    <line x1="54" y1="46" x2="74" y2="46" />
  </g>
  <g stroke="#fff">
    <line x1="58" x2="70" y1="4" y2="4" />
    <line x1="40" x2="88" y1="68" y2="68" />
  </g>
  <path d="M92 24 C92 40 116 32 116 48" stroke="#000" />
  <g stroke="color(display-p3 1 .4 0)">
    <circle cx="182" cy="58" r="12" />
    <line x1="162" y1="46" x2="182" y2="46" />
    <line x1="135.25" y1="46" x2="162" y2="46" />
    <circle cx="135.25" cy="50" r="8" fill="color(display-p3 1 .4 0)" stroke="none" />
    <line
      x1="122"
      y1="54"
      x2="144"
      y2="54"
      stroke="#fff"
    />
  </g>
  <g stroke="#000" transform-origin="163.5 46" transform="rotate(-52.5)">
    <circle cx="182" cy="34" r="12" />
    <line x1="135.25" y1="46" x2="182" y2="46" />
    <circle cx="135.25" cy="42" r="8" fill="#000" stroke="none" />
  </g>
  <g
    stroke="#fff"
    transform-origin="163.5 46"
    transform="rotate(-52.5)"
  >
    <line x1="126" y1="38" x2="166" y2="38" stroke-width="8" />
    <line x1="138" y1="51" x2="182" y2="51" stroke-width="2" />
  </g>
  <circle
    cx="163.5"
    cy="46"
    r="2"
    stroke="none"
    fill="#fff"
  />
</svg>
